<svg width="100" height="100" viewBox="0 0 100 100" fill="none" xmlns="http://www.w3.org/2000/svg">
  <defs>
    <linearGradient id="logo-gradient" x1="0" y1="0" x2="100" y2="100" gradientUnits="userSpaceOnUse">
      <stop stop-color="#3B82F6"/> <!-- blue-500 -->
      <stop offset="1" stop-color="#22D3EE"/> <!-- cyan-400 -->
    </linearGradient>
  </defs>
  <!-- Main C shape -->
  <path d="M80 20C70 10 55 5 40 10C20 15 10 35 10 55C10 75 25 90 45 90C60 90 75 80 85 65" stroke="url(#logo-gradient)" stroke-width="12" stroke-linecap="round" fill="none"/>
  
  <!-- Cluster nodes -->
  <circle cx="45" cy="50" r="6" fill="url(#logo-gradient)"/>
  <circle cx="58" cy="40" r="5" fill="url(#logo-gradient)"/>
  <circle cx="58" cy="62" r="5" fill="url(#logo-gradient)"/>
  <circle cx="68" cy="51" r="5" fill="url(#logo-gradient)"/>
  
  <!-- Connections -->
  <path d="M45 50L58 40" stroke="url(#logo-gradient)" stroke-width="3" stroke-linecap="round"/>
  <path d="M45 50L58 62" stroke="url(#logo-gradient)" stroke-width="3" stroke-linecap="round"/>
  <path d="M58 40L68 51" stroke="url(#logo-gradient)" stroke-width="3" stroke-linecap="round"/>
  <path d="M58 62L68 51" stroke="url(#logo-gradient)" stroke-width="3" stroke-linecap="round"/>
</svg>
